<?xml version="1.0" encoding="UTF-8" standalone="no"?>
<!DOCTYPE svg PUBLIC "-//W3C//DTD SVG 1.1//EN" "http://www.w3.org/Graphics/SVG/1.1/DTD/svg11.dtd">
<svg width="100%" height="100%" viewBox="0 0 1853 1409" version="1.1" xmlns="http://www.w3.org/2000/svg" xmlns:xlink="http://www.w3.org/1999/xlink" xml:space="preserve" xmlns:serif="http://www.serif.com/" style="fill-rule:evenodd;clip-rule:evenodd;stroke-linecap:round;stroke-linejoin:round;stroke-miterlimit:1.5;">
    <g transform="matrix(1,0,0,1,-912.796488,-1317.855062)">
        <g id="pengi-3" serif:id="pengi 3" transform="matrix(1,0,0,1,-47.452864,120.035026)">
            <path id="pengi-3-body" serif:id="pengi 3 body" d="M1373.331,1596.936L1315.35,1603.118L1267.776,1615.893L1333.119,1650.776L1380.58,1687.588L1407.784,1724.071L1402.795,1817.286L1388.143,1850.618L1333.306,1863.04L1209.354,1845.173L1059.607,1876.938C1059.607,1876.938 994.284,1932.661 979.46,1947.938C974.248,1953.311 970.666,1968.601 970.666,1968.601L1003.338,1959.525L1160.346,1954.08L1252.009,1999.458L1290.516,2029.427L1333.306,2024.655L1335.963,2165.797L1319.168,2325.271L1377.252,2415.12L1389.05,2422.38L1360.444,2428.624L1338.903,2450.026L1392.809,2433.253L1380.882,2454.144L1389.115,2474.509L1427.988,2434.835L1446.057,2441.439L1472.233,2450.889L1459.014,2424.213L1428.983,2410.582L1441.485,2393.731L1431.991,2297.721L1533.259,2298.726L1531.309,2378.148L1544.319,2407.872L1523.815,2422.914L1505.627,2451.967L1534.35,2432.937L1550.451,2427.329L1567.916,2439.636L1602.175,2468.344L1597.346,2450.156L1586.067,2426.023L1606.941,2436.006L1644.01,2447.667L1624.184,2429.653L1590.605,2414.225L1624.01,2399.054L1640.444,2327.086L1642.742,2247.905L1636.034,2057.508L1718.154,2102.437L1779.373,2155.5L1838.422,2245.441L1866.592,2175.926L1826.377,2066.524L1769.058,1993.553L1655.797,1904.842L1634.481,1864.575L1589.217,1802.813L1568.476,1677.314L1532.517,1605.527L1447.978,1572.145L1373.331,1596.936Z" style="fill:white;"/>
            <clipPath id="_clip1">
                <path id="pengi-3-body1" serif:id="pengi 3 body" d="M1373.331,1596.936L1315.35,1603.118L1267.776,1615.893L1333.119,1650.776L1380.58,1687.588L1407.784,1724.071L1402.795,1817.286L1388.143,1850.618L1333.306,1863.04L1209.354,1845.173L1059.607,1876.938C1059.607,1876.938 994.284,1932.661 979.46,1947.938C974.248,1953.311 970.666,1968.601 970.666,1968.601L1003.338,1959.525L1160.346,1954.08L1252.009,1999.458L1290.516,2029.427L1333.306,2024.655L1335.963,2165.797L1319.168,2325.271L1377.252,2415.12L1389.05,2422.38L1360.444,2428.624L1338.903,2450.026L1392.809,2433.253L1380.882,2454.144L1389.115,2474.509L1427.988,2434.835L1446.057,2441.439L1472.233,2450.889L1459.014,2424.213L1428.983,2410.582L1441.485,2393.731L1431.991,2297.721L1533.259,2298.726L1531.309,2378.148L1544.319,2407.872L1523.815,2422.914L1505.627,2451.967L1534.35,2432.937L1550.451,2427.329L1567.916,2439.636L1602.175,2468.344L1597.346,2450.156L1586.067,2426.023L1606.941,2436.006L1644.01,2447.667L1624.184,2429.653L1590.605,2414.225L1624.01,2399.054L1640.444,2327.086L1642.742,2247.905L1636.034,2057.508L1718.154,2102.437L1779.373,2155.5L1838.422,2245.441L1866.592,2175.926L1826.377,2066.524L1769.058,1993.553L1655.797,1904.842L1634.481,1864.575L1589.217,1802.813L1568.476,1677.314L1532.517,1605.527L1447.978,1572.145L1373.331,1596.936Z"/>
            </clipPath>
            <g clip-path="url(#_clip1)">
                <path id="negro-3" serif:id="negro 3" d="M1612.37,1634.811L1636.247,1713.564L1578.347,1764.556L1541.88,1704.502L1483.866,1686.52L1409.533,1731.396L1390.709,1870.254L1354.245,1900.356L1197.949,1873.828L1068.932,1900.356L970.666,1956.7L1086.195,1819.859L1208.557,1716.507L1273.546,1590.663L1455.212,1551.444L1612.37,1634.811Z" style="stroke:black;stroke-width:0.83px;"/>
                <g id="ala-3" serif:id="ala 3" transform="matrix(1,0,0,1,397.360178,228)">
                    <path d="M1244.429,1638.431L1469.231,1760.476L1469.231,1947.432L1439.803,2008.721L1442.494,1943.282L1414.463,1856.473L1338.855,1775.256L1244.429,1728.7L1244.429,1638.431Z" style="stroke:black;stroke-width:0.83px;"/>
                </g>
            </g>
            <path id="pengi-3-body2" serif:id="pengi 3 body" d="M1373.331,1596.936L1315.35,1603.118L1267.776,1615.893L1333.119,1650.776L1380.58,1687.588L1407.784,1724.071L1402.795,1817.286L1388.143,1850.618L1333.306,1863.04L1209.354,1845.173L1059.607,1876.938C1059.607,1876.938 994.284,1932.661 979.46,1947.938C974.248,1953.311 970.666,1968.601 970.666,1968.601L1003.338,1959.525L1160.346,1954.08L1252.009,1999.458L1290.516,2029.427L1333.306,2024.655L1335.963,2165.797L1319.168,2325.271L1377.252,2415.12L1389.05,2422.38L1360.444,2428.624L1338.903,2450.026L1392.809,2433.253L1380.882,2454.144L1389.115,2474.509L1427.988,2434.835L1446.057,2441.439L1472.233,2450.889L1459.014,2424.213L1428.983,2410.582L1441.485,2393.731L1431.991,2297.721L1533.259,2298.726L1531.309,2378.148L1544.319,2407.872L1523.815,2422.914L1505.627,2451.967L1534.35,2432.937L1550.451,2427.329L1567.916,2439.636L1602.175,2468.344L1597.346,2450.156L1586.067,2426.023L1606.941,2436.006L1644.01,2447.667L1624.184,2429.653L1590.605,2414.225L1624.01,2399.054L1640.444,2327.086L1642.742,2247.905L1636.034,2057.508L1718.154,2102.437L1779.373,2155.5L1838.422,2245.441L1866.592,2175.926L1826.377,2066.524L1769.058,1993.553L1655.797,1904.842L1634.481,1864.575L1589.217,1802.813L1568.476,1677.314L1532.517,1605.527L1447.978,1572.145L1373.331,1596.936Z" style="fill:none;stroke:black;stroke-width:20.83px;stroke-linecap:butt;stroke-linejoin:bevel;"/>
            <path d="M1637.797,2062.88L1647.222,1956.772L1636.356,1866.431" style="fill:none;stroke:black;stroke-width:20.83px;stroke-linecap:butt;stroke-linejoin:bevel;"/>
            <g transform="matrix(1,0,0,1,-1.835701,-22.41792)">
                <path d="M1413.726,2349.749L1564.491,2347.109L1577.696,2384.346L1543.964,2410.744L1534.547,2414.888L1488.756,2422.514L1480.215,2422.159L1435.078,2410.72L1427.548,2407.079L1401.443,2387.134L1413.726,2349.749ZM1414.091,2370.579L1440.196,2390.525L1485.333,2401.964L1531.125,2394.338L1564.856,2367.939L1414.091,2370.579Z"/>
            </g>
            <g transform="matrix(1,0,0,1,0,-18.48576)">
                <path d="M1414.091,2370.579L1440.196,2390.525L1485.333,2401.964L1531.125,2394.338L1564.856,2367.939L1585.763,2346.239L1566.323,2259.999L1403.532,2263.519L1389.513,2347.695L1414.091,2370.579Z" style="fill:white;"/>
            </g>
            <g transform="matrix(0.941265,0.337668,-0.337668,0.941265,1358.392248,-922.832885)">
                <path d="M917.286,2378.589L928.585,2365.657L915.582,2352.557L931.658,2346.333L945.845,2361.596L937.608,2377.374L917.286,2378.589Z" style="fill:white;"/>
            </g>
        </g>
        <g id="telescopio-2" serif:id="telescopio 2" transform="matrix(1,0,0,1,-129.549847,120.035026)">
            <path d="M2144.365,2337.929L2427.279,2246.482L2618.227,2332.387" style="fill:none;stroke:black;stroke-width:12.5px;stroke-linecap:square;stroke-linejoin:miter;stroke-miterlimit:8;"/>
            <path d="M2104.184,2421.062L2294.006,1987.382" style="fill:none;stroke:white;stroke-width:25px;stroke-linecap:square;stroke-linejoin:miter;stroke-miterlimit:8;"/>
            <path d="M2447.944,2505.582L2406.613,1987.382" style="fill:none;stroke:white;stroke-width:25px;stroke-linecap:square;stroke-linejoin:miter;stroke-miterlimit:8;"/>
            <path d="M2650.094,2409.978L2465.815,1987.382" style="fill:none;stroke:white;stroke-width:25px;stroke-linecap:square;stroke-linejoin:miter;stroke-miterlimit:8;"/>
            <path d="M2288.186,1998.053L2275.358,1975.058L2294.006,1948.509L2347.083,1938.601L2381.296,1922.621L2381.296,1882.099L2427.279,1881.476L2427.279,1921.997L2472.311,1946.772L2493.909,1977.48L2475.207,2004.287L2434.686,1981.844L2410.997,2013.638L2381.296,1980.597L2342.041,1966.808L2314.177,1990.258L2288.186,1998.053Z"/>
            <path d="M2358.453,1814.092L2368.163,1894.01L2455.55,1897.744L2433.89,1841.727L2531.056,1784.278L2524.334,1711.082L2489.977,1687.928L2499.011,1610.207L2478.773,1541.536L2418.275,1582.616L2473.545,1638.633L2393.095,1715.284L2448.897,1777.556L2358.453,1814.092Z" style="fill:white;"/>
            <g transform="matrix(1,0,0,1,75.144628,2.504821)">
                <path d="M2015.448,1742.613L2015.448,1776.257L2047.134,1778.338L2068.698,1814.973L2115.45,1783.562L2072.69,1757.374L2142.648,1695.031L2110.337,1657.186L2015.448,1742.613Z"/>
            </g>
            <g transform="matrix(1,0,0,1,75.144628,2.504821)">
                <path d="M2072.69,1757.374L2047.134,1778.338L2068.698,1814.973L2115.45,1783.562L2072.69,1757.374Z" style="fill:white;"/>
            </g>
            <g transform="matrix(1,0,0,1,-114.516732,164.236543)">
                <path d="M2884.39,1035.527C2884.39,1035.527 2918.443,1022.38 2964.456,1064.477C3010.47,1106.573 3009.001,1140.138 3009.001,1140.138L2813.226,1304.386L2731.81,1294.033L2715.633,1205.238L2884.39,1035.527Z"/>
                <clipPath id="_clip2">
                    <path d="M2884.39,1035.527C2884.39,1035.527 2918.443,1022.38 2964.456,1064.477C3010.47,1106.573 3009.001,1140.138 3009.001,1140.138L2813.226,1304.386L2731.81,1294.033L2715.633,1205.238L2884.39,1035.527Z"/>
                </clipPath>
                <g clip-path="url(#_clip2)">
                    <g transform="matrix(1.03267,-0.032716,-0.032716,1.032762,-53.235736,55.236606)">
                        <path d="M2917.98,1035.527L2756.66,1197.072" style="fill:none;stroke:white;stroke-width:8.33px;stroke-linecap:square;stroke-linejoin:miter;stroke-miterlimit:1;"/>
                    </g>
                </g>
            </g>
            <g transform="matrix(1,0,0,1,75.144628,2.504821)">
                <path d="M2069.487,1944.976L2625.042,1450.075L2590.924,1383.796L2541.912,1371.677L2000,1856.989L2015.448,1915.948L2069.487,1944.976Z"/>
                <clipPath id="_clip3">
                    <path d="M2069.487,1944.976L2625.042,1450.075L2590.924,1383.796L2541.912,1371.677L2000,1856.989L2015.448,1915.948L2069.487,1944.976Z"/>
                </clipPath>
                <g clip-path="url(#_clip3)">
                    <path d="M2016.834,1865.549L2553.463,1383.796" style="fill:none;stroke:white;stroke-width:8.33px;stroke-linecap:square;stroke-linejoin:miter;stroke-miterlimit:1;"/>
                </g>
            </g>
            <g transform="matrix(1,0,0,1,75.144628,2.504821)">
                <path d="M1896.217,1860.525L1942.725,1947.557L1991.706,1965.307L2062.653,1922.089L2028.653,1868.089L1983.653,1907.089L1921.653,1842.089L1896.217,1860.525Z"/>
            </g>
            <g transform="matrix(1,0,0,1,-125.007602,178.43969)">
                <path d="M2737.644,1187.138L2817.042,1187.138L2788.982,1217.902L2750.385,1212.336L2731.81,1207.288L2737.644,1187.138Z"/>
            </g>
            <g transform="matrix(1,0,0,1,75.144628,2.504821)">
                <path d="M2000,1856.725L2050.335,1879.478L2032.891,1894.9L2014.689,1888.327L2000,1856.725Z"/>
            </g>
        </g>
    </g>
</svg>
