<?xml version="1.0" encoding="UTF-8" standalone="no"?>
<!DOCTYPE svg PUBLIC "-//W3C//DTD SVG 1.1//EN" "http://www.w3.org/Graphics/SVG/1.1/DTD/svg11.dtd">
<svg width="100%" height="100%" viewBox="0 0 1852 1409" version="1.1" xmlns="http://www.w3.org/2000/svg" xmlns:xlink="http://www.w3.org/1999/xlink" xml:space="preserve" xmlns:serif="http://www.serif.com/" style="fill-rule:evenodd;clip-rule:evenodd;stroke-linejoin:bevel;stroke-miterlimit:1.5;">
    <g transform="matrix(1,0,0,1,-913.358596,-1317.855062)">
        <g id="pengi" transform="matrix(1,0,0,1,-46.890756,120.035026)">
            <path id="pengi-body" serif:id="pengi body" d="M1986.982,1804.786L1954.459,1780.736L1884.693,1762.036L1808.342,1711.783L1709.418,1704.502L1579.1,1775.99L1455.302,1806.148L1388.143,1850.618L1330.967,1870.585L1209.354,1845.173L1059.607,1876.938C1059.607,1876.938 994.284,1932.661 979.46,1947.938C974.248,1953.311 970.666,1968.601 970.666,1968.601L1003.338,1959.525L1160.346,1954.08L1252.009,1999.458L1314.63,1994.013L1295.572,2025.777L1319.168,2325.271L1377.252,2415.12L1389.05,2422.38L1360.444,2428.624L1338.903,2450.026L1392.809,2433.253L1380.882,2454.144L1389.115,2474.509L1427.988,2434.835L1446.057,2441.439L1472.233,2450.889L1459.014,2424.213L1428.983,2410.582L1441.485,2393.731L1431.991,2297.721L1533.259,2298.726L1531.309,2378.148L1544.319,2407.872L1523.815,2422.914L1505.627,2451.967L1534.35,2432.937L1550.451,2427.329L1567.916,2439.636L1602.175,2468.344L1597.346,2450.156L1586.067,2426.023L1606.941,2436.006L1644.01,2447.667L1624.184,2429.653L1590.605,2414.225L1624.01,2399.054L1640.444,2327.086L1626.83,2246.314L1622.293,2142.852L1655.872,2075.693L1780.208,2118.348L1863.703,2187.322L1890.93,2226.347C1890.93,2226.347 1900.071,2212.431 1900.005,2204.566C1899.854,2186.415 1890.022,2117.44 1890.022,2117.44L1786.561,1996.735L1715.771,1970.416L1669.486,1925.038L1695.823,1887.143L1755.704,1853.341L1831.123,1834.062L1894.56,1813.409L1986.982,1804.786Z" style="fill:white;"/>
            <clipPath id="_clip1">
                <path id="pengi-body1" serif:id="pengi body" d="M1986.982,1804.786L1954.459,1780.736L1884.693,1762.036L1808.342,1711.783L1709.418,1704.502L1579.1,1775.99L1455.302,1806.148L1388.143,1850.618L1330.967,1870.585L1209.354,1845.173L1059.607,1876.938C1059.607,1876.938 994.284,1932.661 979.46,1947.938C974.248,1953.311 970.666,1968.601 970.666,1968.601L1003.338,1959.525L1160.346,1954.08L1252.009,1999.458L1314.63,1994.013L1295.572,2025.777L1319.168,2325.271L1377.252,2415.12L1389.05,2422.38L1360.444,2428.624L1338.903,2450.026L1392.809,2433.253L1380.882,2454.144L1389.115,2474.509L1427.988,2434.835L1446.057,2441.439L1472.233,2450.889L1459.014,2424.213L1428.983,2410.582L1441.485,2393.731L1431.991,2297.721L1533.259,2298.726L1531.309,2378.148L1544.319,2407.872L1523.815,2422.914L1505.627,2451.967L1534.35,2432.937L1550.451,2427.329L1567.916,2439.636L1602.175,2468.344L1597.346,2450.156L1586.067,2426.023L1606.941,2436.006L1644.01,2447.667L1624.184,2429.653L1590.605,2414.225L1624.01,2399.054L1640.444,2327.086L1626.83,2246.314L1622.293,2142.852L1655.872,2075.693L1780.208,2118.348L1863.703,2187.322L1890.93,2226.347C1890.93,2226.347 1900.071,2212.431 1900.005,2204.566C1899.854,2186.415 1890.022,2117.44 1890.022,2117.44L1786.561,1996.735L1715.771,1970.416L1669.486,1925.038L1695.823,1887.143L1755.704,1853.341L1831.123,1834.062L1894.56,1813.409L1986.982,1804.786Z"/>
            </clipPath>
            <g clip-path="url(#_clip1)">
                <path d="M1673.868,1917.553L1651.49,1975.737L1781.284,2013.332L1891.459,2115.377L1942.408,2070.621L1762.486,1958.729L1673.868,1917.553Z" style="stroke:black;stroke-width:20.83px;"/>
                <path d="M1733.115,1860.627L1761.244,1834.867L1763.343,1814.476L1745.442,1803.468L1682.976,1793.414L1596.962,1833.432L1487.638,1840.308L1402.709,1894.254L1357.803,1910.721L1340.964,1902.61L1288.791,1892.764L1197.949,1873.828L1021.269,1886.138L1086.195,1819.859L1298.557,1818.507L1471.641,1776.575L1608.308,1704.356L1689.465,1646.723L1835.549,1639.96L1935.643,1704.356L2015.448,1814.449L1896.417,1883.433L1733.115,1860.627Z" style="stroke:black;stroke-width:0.83px;stroke-linecap:round;stroke-linejoin:round;"/>
            </g>
            <path id="pengi-body2" serif:id="pengi body" d="M1986.982,1804.786L1954.459,1780.736L1884.693,1762.036L1808.342,1711.783L1709.418,1704.502L1579.1,1775.99L1455.302,1806.148L1388.143,1850.618L1330.967,1870.585L1209.354,1845.173L1059.607,1876.938C1059.607,1876.938 994.284,1932.661 979.46,1947.938C974.248,1953.311 970.666,1968.601 970.666,1968.601L1003.338,1959.525L1160.346,1954.08L1252.009,1999.458L1314.63,1994.013L1295.572,2025.777L1319.168,2325.271L1377.252,2415.12L1389.05,2422.38L1360.444,2428.624L1338.903,2450.026L1392.809,2433.253L1380.882,2454.144L1389.115,2474.509L1427.988,2434.835L1446.057,2441.439L1472.233,2450.889L1459.014,2424.213L1428.983,2410.582L1441.485,2393.731L1431.991,2297.721L1533.259,2298.726L1531.309,2378.148L1544.319,2407.872L1523.815,2422.914L1505.627,2451.967L1534.35,2432.937L1550.451,2427.329L1567.916,2439.636L1602.175,2468.344L1597.346,2450.156L1586.067,2426.023L1606.941,2436.006L1644.01,2447.667L1624.184,2429.653L1590.605,2414.225L1624.01,2399.054L1640.444,2327.086L1626.83,2246.314L1622.293,2142.852L1655.872,2075.693L1780.208,2118.348L1863.703,2187.322L1890.93,2226.347C1890.93,2226.347 1900.071,2212.431 1900.005,2204.566C1899.854,2186.415 1890.022,2117.44 1890.022,2117.44L1786.561,1996.735L1715.771,1970.416L1669.486,1925.038L1695.823,1887.143L1755.704,1853.341L1831.123,1834.062L1894.56,1813.409L1986.982,1804.786Z" style="fill:none;stroke:black;stroke-width:20.83px;"/>
            <path d="M1634.972,2117.957L1663.756,2046.562L1651.49,1970.483" style="fill:none;stroke:black;stroke-width:20.83px;"/>
            <g transform="matrix(1,0,0,1,-1.835701,-22.41792)">
                <path d="M1413.726,2349.749L1564.491,2347.109L1577.696,2384.346L1543.964,2410.744L1534.547,2414.888L1488.756,2422.514L1480.215,2422.159L1435.078,2410.72L1427.548,2407.079L1401.443,2387.134L1413.726,2349.749ZM1414.091,2370.579L1440.196,2390.525L1485.333,2401.964L1531.125,2394.338L1564.856,2367.939L1414.091,2370.579Z"/>
            </g>
            <g transform="matrix(1,0,0,1,0,-18.48576)">
                <path d="M1414.091,2370.579L1440.196,2390.525L1485.333,2401.964L1531.125,2394.338L1564.856,2367.939L1585.763,2346.239L1566.323,2259.999L1403.532,2263.519L1389.513,2347.695L1414.091,2370.579Z" style="fill:white;"/>
            </g>
            <g transform="matrix(1,0,0,1,-3.653287,3.196626)">
                <path d="M1796.72,1739.51C1796.72,1739.51 1812.162,1736.592 1820.243,1746.044" style="fill:none;stroke:white;stroke-width:12.5px;stroke-linecap:square;stroke-linejoin:miter;stroke-miterlimit:1;"/>
            </g>
        </g>
        <g id="telescopio-2" serif:id="telescopio 2" transform="matrix(1,0,0,1,-129.549847,120.035026)">
            <path d="M2144.365,2337.929L2427.279,2246.482L2618.227,2332.387" style="fill:none;stroke:black;stroke-width:12.5px;stroke-linecap:square;stroke-linejoin:miter;stroke-miterlimit:8;"/>
            <path d="M2104.184,2421.062L2294.006,1987.382" style="fill:none;stroke:white;stroke-width:25px;stroke-linecap:square;stroke-linejoin:miter;stroke-miterlimit:8;"/>
            <path d="M2447.944,2505.582L2406.613,1987.382" style="fill:none;stroke:white;stroke-width:25px;stroke-linecap:square;stroke-linejoin:miter;stroke-miterlimit:8;"/>
            <path d="M2650.094,2409.978L2465.815,1987.382" style="fill:none;stroke:white;stroke-width:25px;stroke-linecap:square;stroke-linejoin:miter;stroke-miterlimit:8;"/>
            <path d="M2288.186,1998.053L2275.358,1975.058L2294.006,1948.509L2347.083,1938.601L2381.296,1922.621L2381.296,1882.099L2427.279,1881.476L2427.279,1921.997L2472.311,1946.772L2493.909,1977.48L2475.207,2004.287L2434.686,1981.844L2410.997,2013.638L2381.296,1980.597L2342.041,1966.808L2314.177,1990.258L2288.186,1998.053Z"/>
            <path d="M2358.453,1814.092L2368.163,1894.01L2455.55,1897.744L2433.89,1841.727L2531.056,1784.278L2524.334,1711.082L2489.977,1687.928L2499.011,1610.207L2478.773,1541.536L2418.275,1582.616L2473.545,1638.633L2393.095,1715.284L2448.897,1777.556L2358.453,1814.092Z" style="fill:white;"/>
            <g transform="matrix(1,0,0,1,75.144628,2.504821)">
                <path d="M2015.448,1742.613L2015.448,1776.257L2047.134,1778.338L2068.698,1814.973L2115.45,1783.562L2072.69,1757.374L2142.648,1695.031L2110.337,1657.186L2015.448,1742.613Z"/>
            </g>
            <g transform="matrix(1,0,0,1,75.144628,2.504821)">
                <path d="M2072.69,1757.374L2047.134,1778.338L2068.698,1814.973L2115.45,1783.562L2072.69,1757.374Z" style="fill:white;"/>
            </g>
            <g transform="matrix(1,0,0,1,-114.516732,164.236543)">
                <path d="M2884.39,1035.527C2884.39,1035.527 2918.443,1022.38 2964.456,1064.477C3010.47,1106.573 3009.001,1140.138 3009.001,1140.138L2813.226,1304.386L2731.81,1294.033L2715.633,1205.238L2884.39,1035.527Z"/>
                <clipPath id="_clip2">
                    <path d="M2884.39,1035.527C2884.39,1035.527 2918.443,1022.38 2964.456,1064.477C3010.47,1106.573 3009.001,1140.138 3009.001,1140.138L2813.226,1304.386L2731.81,1294.033L2715.633,1205.238L2884.39,1035.527Z"/>
                </clipPath>
                <g clip-path="url(#_clip2)">
                    <g transform="matrix(1.03267,-0.032716,-0.032716,1.032762,-53.235736,55.236606)">
                        <path d="M2917.98,1035.527L2756.66,1197.072" style="fill:none;stroke:white;stroke-width:8.33px;stroke-linecap:square;stroke-linejoin:miter;stroke-miterlimit:1;"/>
                    </g>
                </g>
            </g>
            <g transform="matrix(1,0,0,1,75.144628,2.504821)">
                <path d="M2069.487,1944.976L2625.042,1450.075L2590.924,1383.796L2541.912,1371.677L2000,1856.989L2015.448,1915.948L2069.487,1944.976Z"/>
                <clipPath id="_clip3">
                    <path d="M2069.487,1944.976L2625.042,1450.075L2590.924,1383.796L2541.912,1371.677L2000,1856.989L2015.448,1915.948L2069.487,1944.976Z"/>
                </clipPath>
                <g clip-path="url(#_clip3)">
                    <path d="M2016.834,1865.549L2553.463,1383.796" style="fill:none;stroke:white;stroke-width:8.33px;stroke-linecap:square;stroke-linejoin:miter;stroke-miterlimit:1;"/>
                </g>
            </g>
            <g transform="matrix(1,0,0,1,75.144628,2.504821)">
                <path d="M1896.217,1860.525L1942.725,1947.557L1991.706,1965.307L2062.653,1922.089L2028.653,1868.089L1983.653,1907.089L1921.653,1842.089L1896.217,1860.525Z"/>
            </g>
            <g transform="matrix(1,0,0,1,-125.007602,178.43969)">
                <path d="M2737.644,1187.138L2817.042,1187.138L2788.982,1217.902L2750.385,1212.336L2731.81,1207.288L2737.644,1187.138Z"/>
            </g>
            <g transform="matrix(1,0,0,1,75.144628,2.504821)">
                <path d="M2000,1856.725L2050.335,1879.478L2032.891,1894.9L2014.689,1888.327L2000,1856.725Z"/>
            </g>
        </g>
    </g>
</svg>
