<?xml version="1.0" encoding="UTF-8" standalone="no"?>
<!DOCTYPE svg PUBLIC "-//W3C//DTD SVG 1.1//EN" "http://www.w3.org/Graphics/SVG/1.1/DTD/svg11.dtd">
<svg width="100%" height="100%" viewBox="0 0 874 422" version="1.1" xmlns="http://www.w3.org/2000/svg" xmlns:xlink="http://www.w3.org/1999/xlink" xml:space="preserve" xmlns:serif="http://www.serif.com/" style="fill-rule:evenodd;clip-rule:evenodd;stroke-linecap:round;stroke-linejoin:round;stroke-miterlimit:5;">
    <g transform="matrix(1,0,0,1,-2650.74769,-2183.424737)">
        <g id="pengis-corriendo" serif:id="pengis corriendo" transform="matrix(1,0,0,1,645.716248,120.035026)">
            <g id="pengi-1" serif:id="pengi 1">
                <path id="_-" serif:id=" " d="M2024.629,2469.091L2036.525,2468.507L2059.865,2439.617L2107.696,2435.784L2147.636,2412.005L2188.034,2401.58L2212.793,2413.308L2233.644,2436.765L2251.262,2428.688L2277.95,2422.43L2278.253,2391.286L2245.791,2403.09L2225.825,2380.73L2329.081,2248.092L2331.379,2180.046L2379.595,2138.345L2442.146,2126.617L2383.505,2101.857L2358.745,2081.007L2309.226,2087.523L2228.431,2153.983L2127.428,2146.1L2015.448,2172.227L2115.058,2181.349L2162.097,2193.012L2056.416,2220.443L2015.448,2248.458L2131.999,2251.719L2111.148,2279.085L2078.57,2348.151L2077.267,2393.957L2035.566,2432.856L2024.629,2469.091Z" style="fill:white;"/>
                <clipPath id="_clip1">
                    <path id="_-1" serif:id=" " d="M2024.629,2469.091L2036.525,2468.507L2059.865,2439.617L2107.696,2435.784L2147.636,2412.005L2188.034,2401.58L2212.793,2413.308L2233.644,2436.765L2251.262,2428.688L2277.95,2422.43L2278.253,2391.286L2245.791,2403.09L2225.825,2380.73L2329.081,2248.092L2331.379,2180.046L2379.595,2138.345L2442.146,2126.617L2383.505,2101.857L2358.745,2081.007L2309.226,2087.523L2228.431,2153.983L2127.428,2146.1L2015.448,2172.227L2115.058,2181.349L2162.097,2193.012L2056.416,2220.443L2015.448,2248.458L2131.999,2251.719L2111.148,2279.085L2078.57,2348.151L2077.267,2393.957L2035.566,2432.856L2024.629,2469.091Z"/>
                </clipPath>
                <g clip-path="url(#_clip1)">
                    <path d="M2061.138,2375.478L2156.688,2329.44L2174.061,2254.738L2121.074,2255.606L2055.927,2331.178L2061.138,2375.478Z" style="stroke:black;stroke-width:20.83px;"/>
                    <path d="M2347.788,2227.81L2328.678,2160.925L2264.399,2176.561L2248.764,2193.933L2166.571,2203.007L2062.876,2228.679L1971.669,2277.758L2000,2090.566L2176.667,2092.303L2346.051,2042.791L2484.085,2081.007L2484.085,2171.349L2412.936,2233.891L2347.788,2227.81Z"/>
                </g>
                <path id="_-2" serif:id=" " d="M2024.629,2469.091L2036.525,2468.507L2059.865,2439.617L2107.696,2435.784L2147.636,2412.005L2188.034,2401.58L2212.793,2413.308L2233.644,2436.765L2251.262,2428.688L2277.95,2422.43L2278.253,2391.286L2245.791,2403.09L2225.825,2380.73L2329.081,2248.092L2331.379,2180.046L2379.595,2138.345L2442.146,2126.617L2383.505,2101.857L2358.745,2081.007L2309.226,2087.523L2228.431,2153.983L2127.428,2146.1L2015.448,2172.227L2115.058,2181.349L2162.097,2193.012L2056.416,2220.443L2015.448,2248.458L2131.999,2251.719L2111.148,2279.085L2078.57,2348.151L2077.267,2393.957L2035.566,2432.856L2024.629,2469.091Z" style="fill:none;stroke:black;stroke-width:20.83px;"/>
                <path d="M2073.302,2410.829L2063.749,2426.152L2088.68,2437.307L2060.016,2438.753L2041.897,2457.249L2035.48,2436.11L2055.092,2404.417L2073.302,2410.829Z"/>
                <path d="M2228.797,2242.971L2175.222,2253.213L2127.428,2251.506" style="fill:none;stroke:black;stroke-width:20.83px;"/>
                <g id="ojo" transform="matrix(0.981373,0.192114,-0.192114,0.981373,455.184257,-423.504642)">
                    <path d="M2361.118,2110.15L2344.253,2105.87" style="fill:none;stroke:white;stroke-width:8.33px;"/>
                </g>
            </g>
            <g id="pengi-2" serif:id="pengi 2">
                <path id="_-3" serif:id=" " d="M2867.753,2107.806L2775.753,2073.806L2726.753,2091.806L2711.753,2140.806L2680.57,2183.814L2594.112,2160.275L2503.678,2183.806L2576.753,2201.806L2626.238,2222.884L2544.167,2246.406L2520.647,2277.758L2588.103,2263.445L2643.736,2268.927L2621.894,2290.059L2590.753,2378.806L2559.547,2409.012L2525.753,2438.806L2536.753,2474.509L2557.753,2474.509L2546.753,2458.806L2547.753,2442.806L2594.753,2426.806L2637.753,2443.806L2689.753,2422.806L2730.753,2428.806L2749.753,2445.806L2789.1,2446.035L2815.753,2418.806L2769.423,2419.467L2747.365,2410.691L2737.374,2381.273L2801.572,2230.262L2781.345,2155.729L2818.753,2126.806L2867.753,2107.806Z" style="fill:white;"/>
                <clipPath id="_clip2">
                    <path id="_-4" serif:id=" " d="M2867.753,2107.806L2775.753,2073.806L2726.753,2091.806L2711.753,2140.806L2680.57,2183.814L2594.112,2160.275L2503.678,2183.806L2576.753,2201.806L2626.238,2222.884L2544.167,2246.406L2520.647,2277.758L2588.103,2263.445L2643.736,2268.927L2621.894,2290.059L2590.753,2378.806L2559.547,2409.012L2525.753,2438.806L2536.753,2474.509L2557.753,2474.509L2546.753,2458.806L2547.753,2442.806L2594.753,2426.806L2637.753,2443.806L2689.753,2422.806L2730.753,2428.806L2749.753,2445.806L2789.1,2446.035L2815.753,2418.806L2769.423,2419.467L2747.365,2410.691L2737.374,2381.273L2801.572,2230.262L2781.345,2155.729L2818.753,2126.806L2867.753,2107.806Z"/>
                </clipPath>
                <g clip-path="url(#_clip2)">
                    <path d="M2547.519,2389.966L2633.176,2387.483L2672.281,2356.448L2687.733,2285.687L2682.415,2253.968L2668.086,2261.448L2629.835,2264.87L2556.209,2323.55L2547.519,2389.966Z" style="stroke:black;stroke-width:4.17px;"/>
                    <path d="M2813.344,2170.687L2773.294,2134.278L2742.711,2152.483L2714.429,2195.368L2629.984,2232.351L2496.587,2231.126L2449.984,2160.275L2524.986,2118.258L2651.689,2143.744L2727.419,2036.702L2847.568,2049.81L2925.483,2097.503L2813.344,2170.687Z"/>
                </g>
                <path id="_-5" serif:id=" " d="M2867.753,2107.806L2775.753,2073.806L2726.753,2091.806L2711.753,2140.806L2680.57,2183.814L2594.112,2160.275L2503.678,2183.806L2576.753,2201.806L2626.238,2222.884L2544.167,2246.406L2520.647,2277.758L2588.103,2263.445L2643.736,2268.927L2621.894,2290.059L2590.753,2378.806L2559.547,2409.012L2525.753,2438.806L2536.753,2474.509L2557.753,2474.509L2546.753,2458.806L2547.753,2442.806L2594.753,2426.806L2637.753,2443.806L2689.753,2422.806L2730.753,2428.806L2749.753,2445.806L2789.1,2446.035L2815.753,2418.806L2769.423,2419.467L2747.365,2410.691L2737.374,2381.273L2801.572,2230.262L2781.345,2155.729L2818.753,2126.806L2867.753,2107.806Z" style="fill:none;stroke:black;stroke-width:20.83px;"/>
                <g transform="matrix(1,0,0,1,-7.988598,9.868268)">
                    <path d="M2707.778,2244.1L2676.625,2252.79L2637.824,2259.059" style="stroke:black;stroke-width:20.83px;"/>
                </g>
                <path d="M2804.594,2091.829L2780.862,2084.963" style="fill:none;stroke:white;stroke-width:8.33px;"/>
            </g>
        </g>
    </g>
</svg>
